<svg width="512" height="512" viewBox="0 0 512 512" xmlns="http://www.w3.org/2000/svg">
  <defs>
    <linearGradient id="bgC" x1="0%" y1="0%" x2="100%" y2="100%">
      <stop offset="0%" stop-color="#080818"/>
      <stop offset="100%" stop-color="#0c0c20"/>
    </linearGradient>
    <linearGradient id="screenGrad" x1="0%" y1="0%" x2="0%" y2="100%">
      <stop offset="0%" stop-color="#1a2a50"/>
      <stop offset="100%" stop-color="#0a0f28"/>
    </linearGradient>
    <linearGradient id="prismR" x1="0%" y1="0%" x2="100%" y2="100%">
      <stop offset="0%" stop-color="#f87171" stop-opacity="0.8"/>
      <stop offset="100%" stop-color="#f87171" stop-opacity="0"/>
    </linearGradient>
    <linearGradient id="prismG" x1="0%" y1="0%" x2="100%" y2="100%">
      <stop offset="0%" stop-color="#4ade80" stop-opacity="0.7"/>
      <stop offset="100%" stop-color="#4ade80" stop-opacity="0"/>
    </linearGradient>
    <linearGradient id="prismB" x1="0%" y1="0%" x2="100%" y2="100%">
      <stop offset="0%" stop-color="#60a5fa" stop-opacity="0.85"/>
      <stop offset="100%" stop-color="#60a5fa" stop-opacity="0"/>
    </linearGradient>
    <linearGradient id="playC" x1="0%" y1="0%" x2="100%" y2="100%">
      <stop offset="0%" stop-color="#ffffff"/>
      <stop offset="100%" stop-color="#bfdbfe"/>
    </linearGradient>
  </defs>
  <rect width="512" height="512" rx="112" fill="url(#bgC)"/>
  <rect x="72" y="140" width="368" height="232" rx="16" fill="url(#screenGrad)" stroke="#2a3a6a" stroke-width="4"/>
  <polygon points="256,140 180,372 130,372" fill="url(#prismR)" opacity="0.5"/>
  <polygon points="256,140 256,372 215,372" fill="url(#prismG)" opacity="0.4"/>
  <polygon points="256,140 320,372 380,372" fill="url(#prismB)" opacity="0.5"/>
  <rect x="72" y="140" width="368" height="232" rx="16" fill="none" stroke="#4a6aaa" stroke-width="2" opacity="0.5"/>
  <circle cx="256" cy="256" r="52" fill="#0a0f28" fill-opacity="0.7" stroke="#4a6aaa" stroke-width="2"/>
  <polygon points="240,228 298,256 240,284" fill="url(#playC)" opacity="0.95"/>
  <rect x="224" y="372" width="64" height="10" rx="5" fill="#1a2a50"/>
  <rect x="192" y="378" width="128" height="8" rx="4" fill="#1a2a50"/>
</svg>
